<svg version="1.0" xmlns="http://www.w3.org/2000/svg"
 width="192.000000pt" height="192.000000pt" viewBox="0 0 192.000000 192.000000"
 preserveAspectRatio="xMidYMid meet">
<g transform="translate(0.000000,192.000000) scale(0.100000,-0.100000)"
fill="#000000" stroke="none">
<path d="M85 1708 c-3 -7 -4 -348 -3 -758 l3 -745 875 0 875 0 0 755 0 755
-873 3 c-693 2 -874 0 -877 -10z m1675 -748 l0 -680 -800 0 -800 0 0 680 0
680 800 0 800 0 0 -680z"/>
<path d="M665 1447 c-91 -35 -153 -105 -175 -198 -22 -89 6 -191 69 -258 17
-19 30 -34 29 -35 -108 -43 -214 -155 -253 -265 -24 -69 -37 -168 -25 -191 10
-19 23 -20 450 -20 504 0 463 -9 449 101 -19 152 -111 291 -236 354 -21 11
-40 21 -42 22 -2 2 15 23 37 47 124 135 77 353 -93 432 -56 27 -157 32 -210
11z m162 -88 c62 -23 123 -109 123 -174 0 -65 -61 -151 -123 -174 -36 -14 -98
-14 -134 0 -61 23 -122 109 -123 172 0 63 55 146 115 173 36 16 104 18 142 3z
m75 -491 c31 -15 77 -45 102 -68 49 -46 103 -142 113 -203 l6 -37 -363 0 -363
0 6 35 c9 55 51 138 93 184 103 115 269 151 406 89z"/>
<path d="M1195 1346 c-105 -45 -145 -195 -78 -292 17 -27 21 -40 13 -42 -7 -3
-25 -16 -41 -31 l-28 -26 29 -34 28 -33 34 25 c46 35 107 51 161 43 81 -12
164 -85 187 -165 l9 -31 -135 0 -134 0 0 -40 0 -40 178 2 177 3 -1 65 c-1 99
-54 191 -143 250 l-23 15 26 49 c52 97 25 212 -62 267 -38 24 -56 29 -106 29
-34 -1 -75 -7 -91 -14z m151 -94 c70 -56 52 -164 -31 -192 -41 -13 -64 -8
-105 26 -53 45 -47 127 12 168 30 21 98 20 124 -2z"/>
</g>
</svg>